# xmcd CD database file
#
# Track frame offsets:
#	150
#	18118
#	40528
#	53068
#	65664
#	79947
#	99174
#	128408
#	147392
#	159734
#	178608
#
# Disc length: 2553 seconds
#
# Revision: 1
# Processed by: cddbd v1.5.2PL0 Copyright (c) Steve Scherf et al.
# Submitted via: CDex 1.70beta2
#
DISCID=8409f70b
DTITLE=Cream - Icon
DYEAR=2011
DGENRE=Blues
TTITLE0=I'm so glad
TTITLE1=White room
TTITLE2=Strange brew
TTITLE3=Tales of brave Ulysses
TTITLE4=Born under a bad sign
TTITLE5=Crossroads (live)
TTITLE6=Spoonful
TTITLE7=Politiian
TTITLE8=Badge
TTITLE9=Sunshine of your love
TTITLE10=I feel free
EXTD=YEAR: 2011
EXTT0=
EXTT1=
EXTT2=
EXTT3=
EXTT4=
EXTT5=
EXTT6=
EXTT7=
EXTT8=
EXTT9=
EXTT10=
PLAYORDER=
